<?xml version="1.0" encoding="utf-8"?>
<!-- Generator: Adobe Illustrator 19.0.0, SVG Export Plug-In . SVG Version: 6.00 Build 0)  -->
<svg version="1.1" id="Layer_1" xmlns="http://www.w3.org/2000/svg" xmlns:xlink="http://www.w3.org/1999/xlink" x="0px" y="0px"
	 viewBox="0 0 278.6 70.3" style="enable-background:new 0 0 278.6 70.3;" xml:space="preserve">
<style type="text/css">
	.st0{stroke:#9B1B3C;stroke-miterlimit:10;}
	.st1{font-family:'MyriadPro-Regular';}
	.st2{font-size:9px;}
	.st3{font-family:'Nyala-Regular';}
	.st4{font-size:48px;}
	.st5{fill:#9B1B3C;}
</style>
<text transform="matrix(1 0 0 1 27.0879 67.5562)"><tspan x="0" y="0" class="st0 st1 st2">*</tspan><tspan x="3.7" y="0" class="st1 st2"> Product Manager </tspan><tspan x="72.6" y="0" class="st0 st1 st2">*</tspan><tspan x="76.3" y="0" class="st1 st2"> Technologist </tspan><tspan x="128.8" y="0" class="st0 st1 st2">*</tspan><tspan x="132.5" y="0" class="st1 st2"> Designer</tspan><tspan x="168.1" y="0" class="st0 st1 st2">*</tspan><tspan x="171.8" y="0" class="st1 st2"> Innovator</tspan></text>
<g>
	<g>
		<text transform="matrix(1 0 0 1 0 37.8281)" class="st3 st4">andrey</text>
		<g>
			<g id="XMLID_19_">
				<path id="XMLID_23_" class="st5" d="M120.2,36.3C80.8,38.7,41.4,41.8,2,44.1c-0.8,0-3.1,1.4-1.2,1.3C40.2,43,79.6,39.9,119,37.6
					C119.9,37.5,122.2,36.2,120.2,36.3L120.2,36.3z"/>
			</g>
		</g>
	</g>
	<g>
		<text transform="matrix(1 0 0 1 116.1768 43.561)" class="st3 st4">ryazanov.</text>
		<g>
			<g id="XMLID_13_">
				<path id="XMLID_17_" class="st5" d="M269.8,44.6c-25.4,0.6-50.8,1.4-76.2,2c-25.4,0.6-50.8-0.3-76.3,0.3c-1.6,0-2.3,1.9-0.3,1.9
					c25.4-0.6,50.8,0.3,76.3-0.3c25.4-0.6,50.8-1.4,76.2-2C271,46.5,271.8,44.6,269.8,44.6L269.8,44.6z"/>
			</g>
		</g>
	</g>
</g>
</svg>
